<svg width="96" height="96" xmlns="http://www.w3.org/2000/svg" xmlns:xlink="http://www.w3.org/1999/xlink" xml:space="preserve" overflow="hidden"><g transform="translate(-592 -312)"><g><path d="M681.316 317.664C681.189 317.665 681.064 317.689 680.946 317.736L666.811 323.267 624.385 365.693 617.779 363.493C617.403 360.773 615.079 358.747 612.333 358.746 611.276 358.742 610.24 359.049 609.355 359.627 606.8 361.269 606.059 364.672 607.701 367.227 608.715 368.805 610.462 369.757 612.337 369.754 612.513 369.754 612.688 369.746 612.863 369.729L618.7 375.566 607.18 387.086C603.366 386.43 599.742 388.99 599.085 392.805 598.429 396.619 600.99 400.243 604.804 400.899 608.619 401.555 612.242 398.995 612.899 395.18 613.04 394.359 613.034 393.52 612.88 392.701L624.358 381.223 630.2 387.062C629.903 390.089 632.115 392.784 635.142 393.081 638.169 393.379 640.864 391.166 641.161 388.139 641.449 385.211 639.385 382.574 636.473 382.151L634.287 375.593 676.711 333.166 682.242 319.031C682.445 318.517 682.193 317.936 681.679 317.734 681.563 317.688 681.44 317.665 681.316 317.664ZM609.536 397.513C607.584 399.466 604.418 399.466 602.465 397.514 600.512 395.562 600.512 392.396 602.464 390.443 604.416 388.49 607.582 388.49 609.535 390.442 610.473 391.379 611 392.651 611 393.977 610.999 395.303 610.473 396.575 609.536 397.513ZM612.136 390.613C611.483 389.419 610.495 388.441 609.294 387.8L620.116 376.98 622.944 379.809ZM675 332.048 632.87 374.178 627.894 369.2C627.497 368.816 626.864 368.827 626.48 369.225 626.106 369.612 626.106 370.227 626.48 370.614L632.137 376.271C632.234 376.367 632.35 376.443 632.477 376.493L634.577 382.782 634.967 383.95 636.185 384.128C637.279 384.288 638.234 384.952 638.765 385.921 639.38 387.031 639.332 388.389 638.642 389.453 637.611 391.093 635.445 391.587 633.805 390.556 633.41 390.307 633.068 389.982 632.8 389.6 632.31 388.879 632.095 388.006 632.195 387.14L632.274 386.318 631.607 385.652 614.277 368.313 613.611 367.647 612.673 367.737C612.561 367.747 612.449 367.752 612.337 367.752 610.404 367.757 608.833 366.194 608.828 364.261 608.825 363.058 609.44 361.937 610.457 361.294 611.015 360.931 611.667 360.739 612.333 360.744 612.996 360.74 613.647 360.929 614.205 361.287 615.075 361.84 615.657 362.746 615.798 363.767L615.969 365 617.146 365.393 623.752 367.593 624.925 367.983 625.799 367.109 667.93 324.977 679.53 320.439C679.542 320.439 679.548 320.439 679.543 320.452Z" fill="#000000" fill-rule="nonzero" fill-opacity="1"/><path d="M631.635 368.7C632.026 369.09 632.659 369.09 633.049 368.7L669.818 331.931C670.208 331.539 670.208 330.905 669.816 330.515 669.424 330.125 668.791 330.125 668.4 330.517L631.635 367.286C631.245 367.677 631.245 368.31 631.635 368.7Z" fill="#000000" fill-rule="nonzero" fill-opacity="1"/></g></g></svg>