<svg width="96" height="98" xmlns="http://www.w3.org/2000/svg" xmlns:xlink="http://www.w3.org/1999/xlink" xml:space="preserve" overflow="hidden"><g transform="translate(-324 -346)"><g><g><g><g><path d="M397.906 394.285C397.958 396.578 397.708 398.867 397.162 401.095 393.74 415.046 379.656 423.581 365.706 420.159 363.49 419.616 361.355 418.783 359.356 417.682 358.634 418.03 357.918 418.369 357.208 418.698 370.329 426.834 387.561 422.792 395.697 409.671 398.817 404.639 400.259 398.745 399.814 392.84 399.187 393.321 398.551 393.802 397.906 394.285Z" fill="#000000" fill-rule="nonzero" fill-opacity="1"/><path d="M371.883 366.9C356.412 366.919 343.887 379.476 343.906 394.947 343.908 396.768 344.088 398.585 344.443 400.371 336.337 406.692 323.743 417.685 326.843 422.806 327.631 424.106 329.264 424.754 331.726 424.754 334.82 424.754 339.226 423.729 344.91 421.682 354.4 418.265 366.2 412.4 378.131 405.166 400.1 391.847 421.363 374.245 417.492 367.857 414.392 362.742 398.875 368.791 389.452 373.085 384.47 369.085 378.272 366.903 371.883 366.9ZM371.883 368.9C374.164 368.898 376.435 369.192 378.64 369.775L346.54 389.231C346.579 389.058 346.611 388.885 346.654 388.712 349.506 377.091 359.917 368.915 371.883 368.9ZM396.493 381.506C396.293 381.131 396.078 380.758 395.854 380.389 395.806 380.31 395.754 380.237 395.703 380.158 397.303 379.466 398.859 378.817 400.338 378.244 400.367 378.233 400.372 378.244 400.348 378.261 399.241 379.233 397.953 380.322 396.493 381.506ZM394.144 381.426C394.413 381.87 394.664 382.326 394.903 382.777 388.064 388.107 380.904 393.014 373.465 397.469 366.075 402.003 358.415 406.08 350.527 409.678 350.227 409.256 349.946 408.827 349.676 408.378 348.614 406.625 347.761 404.754 347.135 402.803L390.374 376.6C391.814 378.056 393.079 379.676 394.144 381.426ZM347.966 409.418C348.19 409.788 348.425 410.146 348.666 410.499 346.94 411.246 345.376 411.885 344.001 412.418 343.972 412.429 343.967 412.418 343.991 412.401 345.182 411.355 346.477 410.276 347.829 409.18 347.876 409.259 347.918 409.34 347.966 409.418ZM381.153 370.59C383.973 371.652 386.584 373.204 388.865 375.173L346.583 400.8C345.896 397.864 345.731 394.831 346.095 391.838ZM377.094 403.456C365.271 410.622 353.6 416.427 344.235 419.8 334.014 423.481 329.4 423.161 328.557 421.769 327.29 419.681 331.938 412.79 344.964 402.512 345.441 404.194 346.074 405.827 346.856 407.391 343.984 409.708 341.429 411.935 339.28 414.014 338.842 414.435 338.829 415.132 339.25 415.569 339.547 415.878 339.995 415.986 340.4 415.847 345.869 414.028 357.574 409.447 374.507 399.179 391.44 388.911 400.913 380.658 405.059 376.648 405.495 376.225 405.506 375.529 405.083 375.092 404.787 374.788 404.344 374.681 403.942 374.816 401.108 375.759 397.951 376.993 394.568 378.469 393.546 377.052 392.393 375.734 391.124 374.532 406.256 367.741 414.515 366.803 415.781 368.894 418.11 372.736 402.8 387.875 377.094 403.456Z" fill="#000000" fill-rule="nonzero" fill-opacity="1"/><path d="M414.231 369.726 409.069 375.755C406.847 378.355 397.89 387.855 375.922 401.155L375.722 401.279C353.873 414.469 341.379 417.974 338.07 418.733L330.006 420.586C329.984 420.586 329.984 420.6 330.006 420.605L330.472 420.721C330.985 420.833 331.509 420.884 332.034 420.874 338.558 420.884 355.271 415.039 376.55 402.184 402.928 386.25 414.28 373.285 414.5 369.884L414.3 369.736Z" fill="#000000" fill-rule="nonzero" fill-opacity="1"/></g></g></g></g></g></svg>